# xmcd
#
# Track frame offsets:
#	182
#	12450
#	25872
#	41870
#	57460
#	74030
#	87817
#	103202
#	125170
#	136577
#
# Disc length: 1952 seconds
# Revision: 5
# Processed by: cddbd v1.5.2PL0 Copyright (c) Steve Scherf et al.
# Submitted via: dBpowerAMP V12.0
#
DISCID=92079e0a
DTITLE=Various Artist - Giant Country Christmas Volume 1
DYEAR=1994
DGENRE=Christmas;Country
TTITLE0=Carlene Carter - Rockin' Little Christmas
TTITLE1=Clay Walker - Blue Christmas
TTITLE2=Rhonda Vincent - Star Of Bethlehem
TTITLE3=Kenny Rogers - The Christmas Song
TTITLE4=Laura Vida - I'll Be Home For Christmas
TTITLE5=Orrall and Wright - Reason For The Season
TTITLE6=Dennis Robbins - Santa's On Vacation
TTITLE7=Deborah Allen - Walk All The Way to Memphis
TTITLE8=Doron Norwood - The Working Elf Blues
TTITLE9=Chad Mullins - Christmas Angel
EXTD=
EXTT0=
EXTT1=
EXTT2=
EXTT3=
EXTT4=
EXTT5=
EXTT6=
EXTT7=
EXTT8=
EXTT9=
PLAYORDER=
